<svg id="Layer_1" data-name="Layer 1" xmlns="http://www.w3.org/2000/svg" viewBox="0 0 100 100">
    <title>facebook</title>
    <path d="M55.65,5.8c26.05-.57,50,21,50,49.92a50,50,0,1,1-100-.31C5.68,27.68,28.8,5.24,55.65,5.8ZM47.39,56.44v32H60.86V55.82H69.8l1-11.16h-10c0-2.53,0-4.92,0-7.31a1.83,1.83,0,0,1,2-1.93l3.15,0h4.51v-12H68.37c-4.17,0-8.34-.32-12.44.68-5.28,1.29-8.26,4.76-8.53,10.17-.14,2.89-.11,5.8-.15,8.7,0,.57,0,1.14,0,1.84H40.66V56Z"
          transform="translate(-5.63 -5.79)"/>
</svg>
