<svg id="Layer_1" data-name="Layer 1" xmlns="http://www.w3.org/2000/svg" viewBox="0 0 99.99 100">
    <title>instagram</title>
    <path d="M3.64,52.35a50,50,0,1,1,48.72,50.13A49.88,49.88,0,0,1,3.64,52.35ZM53.31,26.16v-.05c-3.58,0-7.16,0-10.74,0a45.68,45.68,0,0,0-7.77.2c-5.28.95-8.58,5.22-8.6,10.61q0,12.76,0,25.53c0,3,0,6,.22,9,.35,4.68,5,8.92,9.71,8.93,11.45,0,22.9,0,34.35,0A9.82,9.82,0,0,0,78,76.71,11,11,0,0,0,80.6,69.3q0-6.43,0-12.88c0-6.7,0-13.41,0-20.11a10.23,10.23,0,0,0-10-10.13C64.83,26.08,59.07,26.16,53.31,26.16Z"
          transform="translate(-3.64 -2.5)"/>
    <path d="M67.3,47.69h8v3.13q0,9.48,0,19a5.17,5.17,0,0,1-5.39,5.39H37.18c-3.35,0-5.61-2.07-5.64-5.4-.07-7.34,0-14.68,0-22.09h8c-2,6.16-1,11.69,3.61,16.3a14.26,14.26,0,0,0,10.76,4.13A15.07,15.07,0,0,0,67.3,47.69Z"
          transform="translate(-3.64 -2.5)"/>
    <path d="M53.33,43.7A9.71,9.71,0,0,1,63,52.82a9.61,9.61,0,1,1-19.2.66A9.62,9.62,0,0,1,53.33,43.7Z"
          transform="translate(-3.64 -2.5)"/>
    <path d="M65.1,32.37h9.1V41.5H65.1Z" transform="translate(-3.64 -2.5)"/>
</svg>
