<svg id="Layer_1" data-name="Layer 1" xmlns="http://www.w3.org/2000/svg" viewBox="0 0 100 100"><title>linkedin</title><path d="M57.24,103H52.76c-.2,0-.4-.08-.6-.09a47.62,47.62,0,0,1-14.46-3A49.58,49.58,0,0,1,11.8,78.16,48.51,48.51,0,0,1,5.3,58.38c-.11-1-.2-2.09-.3-3.14V50.76c.06-.68.13-1.35.19-2A48,48,0,0,1,8.54,34.51,49.65,49.65,0,0,1,31,9.12,48.34,48.34,0,0,1,49.62,3.3c1-.11,2.09-.2,3.14-.3h4.48l.71.09c2.45.33,4.95.48,7.36,1A49.19,49.19,0,0,1,95.65,23.91a48.69,48.69,0,0,1,9.06,23.76c.11,1,.19,2.06.29,3.09v4.48c0,.2-.08.4-.09.6a45.37,45.37,0,0,1-1.18,8.37A49.46,49.46,0,0,1,82.45,94.77a48.35,48.35,0,0,1-22.12,7.94C59.3,102.82,58.27,102.9,57.24,103ZM45.11,86.83h14v-.68c0-7.45,0-14.9,0-22.35a17.81,17.81,0,0,1,.86-6,6.71,6.71,0,0,1,4.57-4.56,10.4,10.4,0,0,1,4.8-.24,5.66,5.66,0,0,1,3.3,1.79,7.82,7.82,0,0,1,1.71,3.6,25.56,25.56,0,0,1,.49,5.73q0,11,0,22v.65h14V86.2c0-5.28,0-10.55,0-15.82,0-4.2,0-8.4-.13-12.6A26.23,26.23,0,0,0,87.36,50a12.51,12.51,0,0,0-7.44-8.16A20.17,20.17,0,0,0,68.19,41a13.87,13.87,0,0,0-9.31,6.64,2.23,2.23,0,0,0-.12.31l-.19-.13v-6.1H45.11Zm-22.87,0h14V41.67h-14ZM37.38,27.29a8.14,8.14,0,1,0-8.17,8.16A8.15,8.15,0,0,0,37.38,27.29Z" transform="translate(-5 -3)"/></svg>