<svg id="Layer_1" data-name="Layer 1" xmlns="http://www.w3.org/2000/svg" viewBox="0 0 100 99.98"><title>twitter</title><path d="M483,303.08a50,50,0,1,1-50,50.79A50,50,0,0,1,483,303.08Zm-28.12,67.78.18.16.26.17a33,33,0,0,0,22.31,4.49A30.67,30.67,0,0,0,490,371.25a32.92,32.92,0,0,0,14.09-18.69A31.54,31.54,0,0,0,505.49,342a.91.91,0,0,1,.38-.81c1.05-.89,2.1-1.78,3.05-2.76s1.53-1.82,2.28-2.74a16.11,16.11,0,0,0-2.16.63c-.68.22-1.37.42-2.07.58s-1.39.26-2.26.42c3-2.37,4.36-4.17,4.92-6.34l-.55.27a24.77,24.77,0,0,1-6,2.33,1.12,1.12,0,0,1-1.19-.32,11.57,11.57,0,0,0-19.48,9.9l.16,1.15a33.18,33.18,0,0,1-23.9-12.12,11.51,11.51,0,0,0-1.27,8.37,11.84,11.84,0,0,0,4.76,7.07,11.64,11.64,0,0,1-5.14-1.39,11.46,11.46,0,0,0,1.43,5.7,11.8,11.8,0,0,0,7.76,5.8A11.93,11.93,0,0,1,461,358c2,5,5.52,7.63,10.85,8.08A23.62,23.62,0,0,1,454.85,370.86Z" transform="translate(-432.99 -303.08)"/></svg>